<svg xmlns="http://www.w3.org/2000/svg" xmlns:xlink="http://www.w3.org/1999/xlink" width="500" zoomAndPan="magnify" viewBox="0 0 375 374.999991" height="500" preserveAspectRatio="xMidYMid meet" version="1.2"><defs/><g id="750165cca2"><rect x="0" width="375" y="0" height="374.999991" style="fill:#ffffff;fill-opacity:1;stroke:none;"/><rect x="0" width="375" y="0" height="374.999991" style="fill:#ffffff;fill-opacity:1;stroke:none;"/><g style="fill:#000000;fill-opacity:1;"><g transform="translate(38.331539, 320.312126)"><path style="stroke:none" d="M 191.25 -266.359375 L 282.34375 -266.359375 L 282.34375 -213.09375 L 213.625 -213.09375 L 175.796875 -175.265625 L 175.796875 0 L 122.53125 0 L 122.53125 -197.640625 L 133.71875 -208.296875 C 134.425781 -209.359375 134.601562 -210.421875 134.25 -211.484375 C 133.894531 -212.554688 133.003906 -213.09375 131.578125 -213.09375 L 15.984375 -213.09375 L 15.984375 -266.359375 L 141.703125 -266.359375 L 141.703125 -223.203125 C 141.703125 -222.140625 142.320312 -221.34375 143.5625 -220.8125 C 144.8125 -220.28125 145.789062 -220.546875 146.5 -221.609375 Z M 191.25 -266.359375 "/></g></g><g style="fill:#000000;fill-opacity:1;"><g transform="translate(336.664249, 320.312126)"><path style="stroke:none" d=""/></g></g></g></svg>